<svg width="2012" height="1107" xmlns="http://www.w3.org/2000/svg" xmlns:xlink="http://www.w3.org/1999/xlink" xml:space="preserve" overflow="hidden"><defs><clipPath id="clip0"><rect x="1194" y="684" width="2012" height="1107"/></clipPath><linearGradient x1="2200" y1="1791" x2="2200" y2="766" gradientUnits="userSpaceOnUse" spreadMethod="reflect" id="fill1"><stop offset="0" stop-color="#0D0D0D"/><stop offset="0.33" stop-color="#0D0D0D"/><stop offset="1" stop-color="#0A280E"/></linearGradient></defs><g clip-path="url(#clip0)" transform="translate(-1194 -684)"><path d="M3.00744e-06-3.4375 389.583-3.43716C391.482-3.43716 393.021-1.89814 393.021 0.00034385 393.021 1.89882 391.482 3.43784 389.583 3.43784L-3.00744e-06 3.4375C-1.89848 3.4375-3.4375 1.89848-3.4375-3.00744e-06-3.4375-1.89848-1.89848-3.4375 3.00744e-06-3.4375ZM385-22.9163 412.5 0.000360892 385 22.917Z" fill="#380000" transform="matrix(-1 0 0 1 1924 1229.5)"/><path d="M1924.5 1032.5 1924.5 1426.23" stroke="#380000" stroke-width="6.875" stroke-linecap="round" stroke-miterlimit="8" fill="none" fill-rule="evenodd"/><path d="M2479.5 1226.06 2869.08 1226.06C2870.98 1226.06 2872.52 1227.6 2872.52 1229.5 2872.52 1231.4 2870.98 1232.94 2869.08 1232.94L2479.5 1232.94C2477.6 1232.94 2476.06 1231.4 2476.06 1229.5 2476.06 1227.6 2477.6 1226.06 2479.5 1226.06ZM2864.5 1206.58 2892 1229.5 2864.5 1252.42Z" fill="#380000"/><path d="M2479.5 1032.5 2479.5 1426.23" stroke="#380000" stroke-width="6.875" stroke-linecap="round" stroke-miterlimit="8" fill="none" fill-rule="evenodd"/><path d="M3145.18 1791 1254.82 1791C1221.23 1791 1194 1763.77 1194 1730.18L1194 766 3206 766 3206 1730.18C3206 1763.77 3178.77 1791 3145.18 1791Z" fill="url(#fill1)" fill-rule="evenodd"/><path d="M1221.57 684 3178.43 684C3193.66 684 3206 696.345 3206 711.573L3206 766 1194 766 1194 711.573C1194 696.345 1206.34 684 1221.57 684Z" fill="#FFFFFF" fill-rule="evenodd"/><path d="M3144 727C3144 716.507 3152.73 708 3163.5 708 3174.27 708 3183 716.507 3183 727 3183 737.493 3174.27 746 3163.5 746 3152.73 746 3144 737.493 3144 727Z" fill="#C00000" fill-rule="evenodd"/><path d="M3093 727C3093 716.507 3101.73 708 3112.5 708 3123.27 708 3132 716.507 3132 727 3132 737.493 3123.27 746 3112.5 746 3101.73 746 3093 737.493 3093 727Z" fill="#8ED973" fill-rule="evenodd"/><path d="M3042 727C3042 716.507 3050.73 708 3061.5 708 3072.27 708 3081 716.507 3081 727 3081 737.493 3072.27 746 3061.5 746 3050.73 746 3042 737.493 3042 727Z" fill="#FFC000" fill-rule="evenodd"/><path d="M1943.5 1312C1943.5 1168.13 2057.89 1051.5 2199 1051.5 2340.11 1051.5 2454.5 1168.13 2454.5 1312 2454.5 1455.87 2340.11 1572.5 2199 1572.5 2057.89 1572.5 1943.5 1455.87 1943.5 1312Z" stroke="#3B7D23" stroke-width="114.583" stroke-miterlimit="8" fill="none" fill-rule="evenodd"/></g></svg>