<svg xmlns="http://www.w3.org/2000/svg" viewBox="0 0 375 375" height="500" width="500">
<path fill="#1f96f4" d="M 191.484375 415.5625 C 172.808594 415.5625 157.671875 400.425781 157.671875 381.75 C 157.671875 363.074219 172.808594 347.9375 191.484375 347.9375 C 210.160156 347.9375 225.296875 363.074219 225.296875 381.75 C 225.296875 400.425781 210.160156 415.5625 191.484375 415.5625 Z M 269.042969 365.941406 L 253.902344 364.148438 C 252.535156 359.285156 250.597656 354.550781 248.074219 350.050781 L 257.503906 338.085938 C 259.078125 336.089844 258.910156 333.230469 257.113281 331.4375 L 241.796875 316.121094 C 240.003906 314.324219 237.144531 314.15625 235.148438 315.730469 L 223.179688 325.160156 C 218.683594 322.636719 213.949219 320.699219 209.085938 319.332031 L 207.292969 304.191406 C 206.996094 301.667969 204.855469 299.765625 202.3125 299.765625 L 180.65625 299.765625 C 178.113281 299.765625 175.972656 301.667969 175.675781 304.191406 L 173.882812 319.332031 C 169.019531 320.699219 164.285156 322.636719 159.789062 325.160156 L 147.820312 315.730469 C 145.824219 314.15625 142.964844 314.324219 141.167969 316.121094 L 125.855469 331.4375 C 124.058594 333.230469 123.890625 336.089844 125.464844 338.085938 L 134.894531 350.050781 C 132.371094 354.550781 130.429688 359.285156 129.066406 364.148438 L 113.925781 365.941406 C 111.402344 366.238281 109.5 368.378906 109.5 370.921875 L 109.5 392.578125 C 109.5 395.121094 111.402344 397.261719 113.925781 397.558594 L 129.066406 399.351562 C 130.429688 404.210938 132.371094 408.949219 134.894531 413.445312 L 125.464844 425.414062 C 123.890625 427.410156 124.058594 430.269531 125.855469 432.0625 L 141.167969 447.378906 C 142.964844 449.175781 145.824219 449.34375 147.820312 447.769531 L 159.789062 438.339844 C 164.285156 440.859375 169.019531 442.800781 173.882812 444.167969 L 175.675781 459.308594 C 175.972656 461.832031 178.113281 463.734375 180.65625 463.734375 L 201.953125 463.734375 C 204.449219 463.734375 206.566406 461.898438 206.917969 459.421875 L 209.085938 444.167969 C 213.949219 442.800781 218.683594 440.859375 223.179688 438.339844 L 235.148438 447.769531 C 237.144531 449.34375 240.003906 449.175781 241.796875 447.378906 L 257.113281 432.0625 C 258.910156 430.269531 259.078125 427.410156 257.503906 425.414062 L 248.074219 413.445312 C 250.597656 408.949219 252.535156 404.210938 253.902344 399.351562 L 269.042969 397.558594 C 271.566406 397.261719 273.46875 395.121094 273.46875 392.578125 L 273.46875 370.921875 C 273.46875 368.378906 271.566406 366.238281 269.042969 365.941406"/>
<path fill="#f0652a" d="M 168.367188 238.3125 C 140.304688 227.746094 126.117188 196.433594 136.679688 168.367188 C 147.242188 140.304688 178.554688 126.117188 206.621094 136.679688 C 234.6875 147.242188 248.875 178.554688 238.3125 206.621094 C 227.746094 234.6875 196.433594 248.875 168.367188 238.3125 Z M 312.992188 207.605469 L 291.257812 196.347656 C 291.953125 188.265625 291.714844 180.054688 290.46875 171.867188 L 311.410156 159.21875 C 314.90625 157.109375 316.269531 152.71875 314.582031 149 L 300.230469 117.324219 C 298.546875 113.609375 294.347656 111.734375 290.457031 112.972656 L 267.140625 120.378906 C 261.808594 114.042969 255.785156 108.449219 249.253906 103.644531 L 255.125 79.878906 C 256.101562 75.914062 253.960938 71.847656 250.140625 70.410156 L 217.59375 58.160156 C 213.773438 56.722656 209.484375 58.367188 207.605469 61.992188 L 196.347656 83.730469 C 188.265625 83.035156 180.054688 83.273438 171.867188 84.519531 L 159.21875 63.578125 C 157.109375 60.082031 152.71875 58.71875 149 60.40625 L 117.324219 74.757812 C 113.609375 76.441406 111.734375 80.640625 112.972656 84.53125 L 120.378906 107.851562 C 114.042969 113.183594 108.449219 119.199219 103.644531 125.734375 L 79.878906 119.867188 C 75.914062 118.886719 71.847656 121.027344 70.410156 124.847656 L 58.160156 157.394531 C 56.722656 161.214844 58.367188 165.507812 61.992188 167.386719 L 83.730469 178.640625 C 83.035156 186.71875 83.273438 194.9375 84.519531 203.121094 L 63.578125 215.769531 C 60.082031 217.878906 58.71875 222.273438 60.40625 225.988281 L 74.757812 257.664062 C 76.441406 261.382812 80.640625 263.253906 84.53125 262.015625 L 107.851562 254.609375 C 113.183594 260.945312 119.199219 266.539062 125.734375 271.347656 L 119.867188 295.109375 C 118.886719 299.074219 121.027344 303.140625 124.847656 304.582031 L 156.855469 316.628906 C 160.605469 318.039062 164.828125 316.476562 166.757812 312.957031 L 178.640625 291.257812 C 186.71875 291.953125 194.9375 291.714844 203.121094 290.46875 L 215.769531 311.410156 C 217.878906 314.90625 222.273438 316.269531 225.988281 314.582031 L 257.664062 300.230469 C 261.382812 298.546875 263.253906 294.347656 262.015625 290.457031 L 254.609375 267.140625 C 260.945312 261.808594 266.539062 255.785156 271.347656 249.253906 L 295.109375 255.125 C 299.074219 256.101562 303.140625 253.960938 304.582031 250.140625 L 316.832031 217.59375 C 318.269531 213.773438 316.621094 209.484375 312.992188 207.605469"/>
<path fill="#ffbd59" d="M 44.113281 85.996094 C 25.4375 85.996094 10.296875 70.859375 10.296875 52.183594 C 10.296875 33.507812 25.4375 18.371094 44.113281 18.371094 C 62.785156 18.371094 77.925781 33.507812 77.925781 52.183594 C 77.925781 70.859375 62.785156 85.996094 44.113281 85.996094 Z M 121.667969 36.375 L 106.53125 34.582031 C 105.164062 29.71875 103.222656 24.984375 100.699219 20.484375 L 110.132812 8.519531 C 111.707031 6.523438 111.539062 3.664062 109.738281 1.867188 L 94.425781 -13.445312 C 92.628906 -15.242188 89.769531 -15.410156 87.773438 -13.835938 L 75.808594 -4.40625 C 71.3125 -6.929688 66.574219 -8.867188 61.714844 -10.234375 L 59.921875 -25.375 C 59.621094 -27.898438 57.480469 -29.800781 54.9375 -29.800781 L 33.28125 -29.800781 C 30.742188 -29.800781 28.601562 -27.898438 28.304688 -25.375 L 26.511719 -10.234375 C 21.648438 -8.867188 16.914062 -6.929688 12.414062 -4.40625 L 0.449219 -13.835938 C -1.546875 -15.410156 -4.40625 -15.242188 -6.203125 -13.445312 L -21.515625 1.867188 C -23.3125 3.664062 -23.484375 6.523438 -21.910156 8.519531 L -12.476562 20.484375 C -15 24.984375 -16.941406 29.71875 -18.308594 34.582031 L -33.445312 36.375 C -35.972656 36.671875 -37.871094 38.8125 -37.871094 41.355469 L -37.871094 63.011719 C -37.871094 65.554688 -35.972656 67.691406 -33.445312 67.992188 L -18.308594 69.785156 C -16.941406 74.644531 -15 79.382812 -12.476562 83.878906 L -21.910156 95.84375 C -23.484375 97.84375 -23.3125 100.699219 -21.515625 102.496094 L -6.203125 117.8125 C -4.40625 119.609375 -1.546875 119.777344 0.449219 118.203125 L 12.414062 108.773438 C 16.914062 111.292969 21.648438 113.234375 26.511719 114.601562 L 28.304688 129.742188 C 28.601562 132.265625 30.742188 134.167969 33.28125 134.167969 L 54.582031 134.167969 C 57.078125 134.167969 59.195312 132.332031 59.546875 129.855469 L 61.714844 114.601562 C 66.574219 113.234375 71.3125 111.292969 75.808594 108.773438 L 87.773438 118.203125 C 89.769531 119.777344 92.628906 119.609375 94.425781 117.8125 L 109.738281 102.496094 C 111.539062 100.699219 111.707031 97.84375 110.132812 95.84375 L 100.699219 83.878906 C 103.222656 79.382812 105.164062 74.644531 106.53125 69.785156 L 121.667969 67.992188 C 124.195312 67.691406 126.097656 65.554688 126.097656 63.011719 L 126.097656 41.355469 C 126.097656 38.8125 124.195312 36.671875 121.667969 36.375"/>
</svg>