<svg width="96" viewBox="0 0 72 72" height="96" preserveAspectRatio="xMidYMid meet" version="1.0" xmlns="http://www.w3.org/2000/svg"><defs><linearGradient x1="0" gradientTransform="matrix(0.28125, 0, 0, 0.28125, 0, 0.000002)" y1="128" x2="511.999979" gradientUnits="userSpaceOnUse" y2="128" id="7f55175455"><stop stop-opacity="1" stop-color="rgb(1.998901%, 1.998901%, 1.998901%)" offset="0"/><stop stop-opacity="1" stop-color="rgb(2.163696%, 2.163696%, 2.163696%)" offset="0.015625"/><stop stop-opacity="1" stop-color="rgb(2.493286%, 2.493286%, 2.493286%)" offset="0.03125"/><stop stop-opacity="1" stop-color="rgb(2.822876%, 2.822876%, 2.822876%)" offset="0.046875"/><stop stop-opacity="1" stop-color="rgb(3.152466%, 3.152466%, 3.152466%)" offset="0.0625"/><stop stop-opacity="1" stop-color="rgb(3.482056%, 3.482056%, 3.482056%)" offset="0.078125"/><stop stop-opacity="1" stop-color="rgb(3.813171%, 3.813171%, 3.813171%)" offset="0.09375"/><stop stop-opacity="1" stop-color="rgb(4.142761%, 4.142761%, 4.142761%)" offset="0.109375"/><stop stop-opacity="1" stop-color="rgb(4.472351%, 4.472351%, 4.472351%)" offset="0.125"/><stop stop-opacity="1" stop-color="rgb(4.801941%, 4.801941%, 4.801941%)" offset="0.140625"/><stop stop-opacity="1" stop-color="rgb(5.131531%, 5.131531%, 5.131531%)" offset="0.15625"/><stop stop-opacity="1" stop-color="rgb(5.461121%, 5.461121%, 5.461121%)" offset="0.171875"/><stop stop-opacity="1" stop-color="rgb(5.79071%, 5.79071%, 5.79071%)" offset="0.1875"/><stop stop-opacity="1" stop-color="rgb(6.1203%, 6.1203%, 6.1203%)" offset="0.203125"/><stop stop-opacity="1" stop-color="rgb(6.44989%, 6.44989%, 6.44989%)" offset="0.21875"/><stop stop-opacity="1" stop-color="rgb(6.77948%, 6.77948%, 6.77948%)" offset="0.234375"/><stop stop-opacity="1" stop-color="rgb(7.10907%, 7.10907%, 7.10907%)" offset="0.25"/><stop stop-opacity="1" stop-color="rgb(7.43866%, 7.43866%, 7.43866%)" offset="0.265625"/><stop stop-opacity="1" stop-color="rgb(7.76825%, 7.76825%, 7.76825%)" offset="0.28125"/><stop stop-opacity="1" stop-color="rgb(8.097839%, 8.097839%, 8.097839%)" offset="0.296875"/><stop stop-opacity="1" stop-color="rgb(8.427429%, 8.427429%, 8.427429%)" offset="0.3125"/><stop stop-opacity="1" stop-color="rgb(8.757019%, 8.757019%, 8.757019%)" offset="0.328125"/><stop stop-opacity="1" stop-color="rgb(9.088135%, 9.088135%, 9.088135%)" offset="0.34375"/><stop stop-opacity="1" stop-color="rgb(9.417725%, 9.417725%, 9.417725%)" offset="0.359375"/><stop stop-opacity="1" stop-color="rgb(9.747314%, 9.747314%, 9.747314%)" offset="0.375"/><stop stop-opacity="1" stop-color="rgb(10.076904%, 10.076904%, 10.076904%)" offset="0.390625"/><stop stop-opacity="1" stop-color="rgb(10.406494%, 10.406494%, 10.406494%)" offset="0.40625"/><stop stop-opacity="1" stop-color="rgb(10.736084%, 10.736084%, 10.736084%)" offset="0.421875"/><stop stop-opacity="1" stop-color="rgb(11.065674%, 11.065674%, 11.065674%)" offset="0.4375"/><stop stop-opacity="1" stop-color="rgb(11.395264%, 11.395264%, 11.395264%)" offset="0.453125"/><stop stop-opacity="1" stop-color="rgb(11.724854%, 11.724854%, 11.724854%)" offset="0.46875"/><stop stop-opacity="1" stop-color="rgb(12.054443%, 12.054443%, 12.054443%)" offset="0.484375"/><stop stop-opacity="1" stop-color="rgb(12.384033%, 12.384033%, 12.384033%)" offset="0.5"/><stop stop-opacity="1" stop-color="rgb(12.713623%, 12.713623%, 12.713623%)" offset="0.515625"/><stop stop-opacity="1" stop-color="rgb(13.043213%, 13.043213%, 13.043213%)" offset="0.53125"/><stop stop-opacity="1" stop-color="rgb(13.372803%, 13.372803%, 13.372803%)" offset="0.546875"/><stop stop-opacity="1" stop-color="rgb(13.702393%, 13.702393%, 13.702393%)" offset="0.5625"/><stop stop-opacity="1" stop-color="rgb(14.033508%, 14.033508%, 14.033508%)" offset="0.578125"/><stop stop-opacity="1" stop-color="rgb(14.363098%, 14.363098%, 14.363098%)" offset="0.59375"/><stop stop-opacity="1" stop-color="rgb(14.692688%, 14.692688%, 14.692688%)" offset="0.609375"/><stop stop-opacity="1" stop-color="rgb(15.022278%, 15.022278%, 15.022278%)" offset="0.625"/><stop stop-opacity="1" stop-color="rgb(15.351868%, 15.351868%, 15.351868%)" offset="0.640625"/><stop stop-opacity="1" stop-color="rgb(15.681458%, 15.681458%, 15.681458%)" offset="0.65625"/><stop stop-opacity="1" stop-color="rgb(16.011047%, 16.011047%, 16.011047%)" offset="0.671875"/><stop stop-opacity="1" stop-color="rgb(16.340637%, 16.340637%, 16.340637%)" offset="0.6875"/><stop stop-opacity="1" stop-color="rgb(16.670227%, 16.670227%, 16.670227%)" offset="0.703125"/><stop stop-opacity="1" stop-color="rgb(16.999817%, 16.999817%, 16.999817%)" offset="0.71875"/><stop stop-opacity="1" stop-color="rgb(17.329407%, 17.329407%, 17.329407%)" offset="0.734375"/><stop stop-opacity="1" stop-color="rgb(17.658997%, 17.658997%, 17.658997%)" offset="0.75"/><stop stop-opacity="1" stop-color="rgb(17.988586%, 17.988586%, 17.988586%)" offset="0.765625"/><stop stop-opacity="1" stop-color="rgb(18.318176%, 18.318176%, 18.318176%)" offset="0.78125"/><stop stop-opacity="1" stop-color="rgb(18.647766%, 18.647766%, 18.647766%)" offset="0.796875"/><stop stop-opacity="1" stop-color="rgb(18.977356%, 18.977356%, 18.977356%)" offset="0.8125"/><stop stop-opacity="1" stop-color="rgb(19.308472%, 19.308472%, 19.308472%)" offset="0.828125"/><stop stop-opacity="1" stop-color="rgb(19.638062%, 19.638062%, 19.638062%)" offset="0.84375"/><stop stop-opacity="1" stop-color="rgb(19.967651%, 19.967651%, 19.967651%)" offset="0.859375"/><stop stop-opacity="1" stop-color="rgb(20.297241%, 20.297241%, 20.297241%)" offset="0.875"/><stop stop-opacity="1" stop-color="rgb(20.626831%, 20.626831%, 20.626831%)" offset="0.890625"/><stop stop-opacity="1" stop-color="rgb(20.956421%, 20.956421%, 20.956421%)" offset="0.90625"/><stop stop-opacity="1" stop-color="rgb(21.286011%, 21.286011%, 21.286011%)" offset="0.921875"/><stop stop-opacity="1" stop-color="rgb(21.615601%, 21.615601%, 21.615601%)" offset="0.9375"/><stop stop-opacity="1" stop-color="rgb(21.94519%, 21.94519%, 21.94519%)" offset="0.953125"/><stop stop-opacity="1" stop-color="rgb(22.27478%, 22.27478%, 22.27478%)" offset="0.96875"/><stop stop-opacity="1" stop-color="rgb(22.60437%, 22.60437%, 22.60437%)" offset="0.984375"/><stop stop-opacity="1" stop-color="rgb(22.93396%, 22.93396%, 22.93396%)" offset="1"/></linearGradient><clipPath id="eeb7f738bf"><path d="M 36 0 C 16.117188 0 0 16.117188 0 36 C 0 55.882812 16.117188 72 36 72 C 55.882812 72 72 55.882812 72 36 C 72 16.117188 55.882812 0 36 0 Z M 36 0 " clip-rule="nonzero"/></clipPath><linearGradient x1="0" gradientTransform="matrix(0.28125, 0, 0, 0.28125, 0, 0.000002)" y1="128" x2="255.999989" gradientUnits="userSpaceOnUse" y2="128" id="5a29b5050c"><stop stop-opacity="1" stop-color="rgb(0%, 0%, 0%)" offset="0"/><stop stop-opacity="1" stop-color="rgb(0.180054%, 0.180054%, 0.180054%)" offset="0.015625"/><stop stop-opacity="1" stop-color="rgb(0.540161%, 0.540161%, 0.540161%)" offset="0.03125"/><stop stop-opacity="1" stop-color="rgb(0.901794%, 0.901794%, 0.901794%)" offset="0.046875"/><stop stop-opacity="1" stop-color="rgb(1.261902%, 1.261902%, 1.261902%)" offset="0.0625"/><stop stop-opacity="1" stop-color="rgb(1.623535%, 1.623535%, 1.623535%)" offset="0.078125"/><stop stop-opacity="1" stop-color="rgb(1.983643%, 1.983643%, 1.983643%)" offset="0.09375"/><stop stop-opacity="1" stop-color="rgb(2.345276%, 2.345276%, 2.345276%)" offset="0.109375"/><stop stop-opacity="1" stop-color="rgb(2.705383%, 2.705383%, 2.705383%)" offset="0.125"/><stop stop-opacity="1" stop-color="rgb(3.067017%, 3.067017%, 3.067017%)" offset="0.140625"/><stop stop-opacity="1" stop-color="rgb(3.427124%, 3.427124%, 3.427124%)" offset="0.15625"/><stop stop-opacity="1" stop-color="rgb(3.788757%, 3.788757%, 3.788757%)" offset="0.171875"/><stop stop-opacity="1" stop-color="rgb(4.148865%, 4.148865%, 4.148865%)" offset="0.1875"/><stop stop-opacity="1" stop-color="rgb(4.510498%, 4.510498%, 4.510498%)" offset="0.203125"/><stop stop-opacity="1" stop-color="rgb(4.872131%, 4.872131%, 4.872131%)" offset="0.21875"/><stop stop-opacity="1" stop-color="rgb(5.232239%, 5.232239%, 5.232239%)" offset="0.234375"/><stop stop-opacity="1" stop-color="rgb(5.593872%, 5.593872%, 5.593872%)" offset="0.25"/><stop stop-opacity="1" stop-color="rgb(5.953979%, 5.953979%, 5.953979%)" offset="0.265625"/><stop stop-opacity="1" stop-color="rgb(6.315613%, 6.315613%, 6.315613%)" offset="0.28125"/><stop stop-opacity="1" stop-color="rgb(6.67572%, 6.67572%, 6.67572%)" offset="0.296875"/><stop stop-opacity="1" stop-color="rgb(7.037354%, 7.037354%, 7.037354%)" offset="0.3125"/><stop stop-opacity="1" stop-color="rgb(7.397461%, 7.397461%, 7.397461%)" offset="0.328125"/><stop stop-opacity="1" stop-color="rgb(7.759094%, 7.759094%, 7.759094%)" offset="0.34375"/><stop stop-opacity="1" stop-color="rgb(8.119202%, 8.119202%, 8.119202%)" offset="0.359375"/><stop stop-opacity="1" stop-color="rgb(8.480835%, 8.480835%, 8.480835%)" offset="0.375"/><stop stop-opacity="1" stop-color="rgb(8.842468%, 8.842468%, 8.842468%)" offset="0.390625"/><stop stop-opacity="1" stop-color="rgb(9.202576%, 9.202576%, 9.202576%)" offset="0.40625"/><stop stop-opacity="1" stop-color="rgb(9.564209%, 9.564209%, 9.564209%)" offset="0.421875"/><stop stop-opacity="1" stop-color="rgb(9.924316%, 9.924316%, 9.924316%)" offset="0.4375"/><stop stop-opacity="1" stop-color="rgb(10.28595%, 10.28595%, 10.28595%)" offset="0.453125"/><stop stop-opacity="1" stop-color="rgb(10.646057%, 10.646057%, 10.646057%)" offset="0.46875"/><stop stop-opacity="1" stop-color="rgb(11.00769%, 11.00769%, 11.00769%)" offset="0.484375"/><stop stop-opacity="1" stop-color="rgb(11.367798%, 11.367798%, 11.367798%)" offset="0.5"/><stop stop-opacity="1" stop-color="rgb(11.729431%, 11.729431%, 11.729431%)" offset="0.515625"/><stop stop-opacity="1" stop-color="rgb(12.089539%, 12.089539%, 12.089539%)" offset="0.53125"/><stop stop-opacity="1" stop-color="rgb(12.451172%, 12.451172%, 12.451172%)" offset="0.546875"/><stop stop-opacity="1" stop-color="rgb(12.812805%, 12.812805%, 12.812805%)" offset="0.5625"/><stop stop-opacity="1" stop-color="rgb(13.172913%, 13.172913%, 13.172913%)" offset="0.578125"/><stop stop-opacity="1" stop-color="rgb(13.534546%, 13.534546%, 13.534546%)" offset="0.59375"/><stop stop-opacity="1" stop-color="rgb(13.894653%, 13.894653%, 13.894653%)" offset="0.609375"/><stop stop-opacity="1" stop-color="rgb(14.256287%, 14.256287%, 14.256287%)" offset="0.625"/><stop stop-opacity="1" stop-color="rgb(14.616394%, 14.616394%, 14.616394%)" offset="0.640625"/><stop stop-opacity="1" stop-color="rgb(14.978027%, 14.978027%, 14.978027%)" offset="0.65625"/><stop stop-opacity="1" stop-color="rgb(15.338135%, 15.338135%, 15.338135%)" offset="0.671875"/><stop stop-opacity="1" stop-color="rgb(15.699768%, 15.699768%, 15.699768%)" offset="0.6875"/><stop stop-opacity="1" stop-color="rgb(16.059875%, 16.059875%, 16.059875%)" offset="0.703125"/><stop stop-opacity="1" stop-color="rgb(16.421509%, 16.421509%, 16.421509%)" offset="0.71875"/><stop stop-opacity="1" stop-color="rgb(16.783142%, 16.783142%, 16.783142%)" offset="0.734375"/><stop stop-opacity="1" stop-color="rgb(17.14325%, 17.14325%, 17.14325%)" offset="0.75"/><stop stop-opacity="1" stop-color="rgb(17.504883%, 17.504883%, 17.504883%)" offset="0.765625"/><stop stop-opacity="1" stop-color="rgb(17.86499%, 17.86499%, 17.86499%)" offset="0.78125"/><stop stop-opacity="1" stop-color="rgb(18.226624%, 18.226624%, 18.226624%)" offset="0.796875"/><stop stop-opacity="1" stop-color="rgb(18.586731%, 18.586731%, 18.586731%)" offset="0.8125"/><stop stop-opacity="1" stop-color="rgb(18.948364%, 18.948364%, 18.948364%)" offset="0.828125"/><stop stop-opacity="1" stop-color="rgb(19.308472%, 19.308472%, 19.308472%)" offset="0.84375"/><stop stop-opacity="1" stop-color="rgb(19.670105%, 19.670105%, 19.670105%)" offset="0.859375"/><stop stop-opacity="1" stop-color="rgb(20.030212%, 20.030212%, 20.030212%)" offset="0.875"/><stop stop-opacity="1" stop-color="rgb(20.391846%, 20.391846%, 20.391846%)" offset="0.890625"/><stop stop-opacity="1" stop-color="rgb(20.753479%, 20.753479%, 20.753479%)" offset="0.90625"/><stop stop-opacity="1" stop-color="rgb(21.113586%, 21.113586%, 21.113586%)" offset="0.921875"/><stop stop-opacity="1" stop-color="rgb(21.47522%, 21.47522%, 21.47522%)" offset="0.9375"/><stop stop-opacity="1" stop-color="rgb(21.835327%, 21.835327%, 21.835327%)" offset="0.953125"/><stop stop-opacity="1" stop-color="rgb(22.19696%, 22.19696%, 22.19696%)" offset="0.96875"/><stop stop-opacity="1" stop-color="rgb(22.557068%, 22.557068%, 22.557068%)" offset="0.984375"/><stop stop-opacity="1" stop-color="rgb(22.918701%, 22.918701%, 22.918701%)" offset="1"/></linearGradient><mask id="511caa983e"><g filter="url(#a73770b1e3)"><rect x="-14.4" width="172.8" fill="#000000" y="-7.2" height="86.4" fill-opacity="0.03"/></g></mask><clipPath id="87dbcef533"><path d="M 0.628906 1.125 L 63.628906 1.125 L 63.628906 70.800781 L 0.628906 70.800781 Z M 0.628906 1.125 " clip-rule="nonzero"/></clipPath></defs><g clip-path="url(#49399d0ab5)"><g clip-path="url(#eeb7f738bf)"><path fill="url(#5a29b5050c)" d="M 0 0 L 0 72 L 72 72 L 72 0 Z M 0 0 " fill-rule="nonzero"/><path stroke-linecap="butt" transform="matrix(0.75, 0, 0, 0.75, 0, 0.000002)" fill="none" stroke-linejoin="miter" d="M 48.000002 -0.00000266667 C 21.489584 -0.00000266667 0 21.489582 0 47.999999 C 0 74.510417 21.489584 96.000001 48.000002 96.000001 C 74.51042 96.000001 96.000004 74.510417 96.000004 47.999999 C 96.000004 21.489582 74.51042 -0.00000266667 48.000002 -0.00000266667 Z M 48.000002 -0.00000266667 " stroke="#202020" stroke-width="2" stroke-opacity="1" stroke-miterlimit="4"/></g></g><g mask="url(#511caa983e)"><g transform="matrix(1, 0, 0, 1, 1, -0.000000000000001443)"><g clip-path="url(#f4271ad319)"><g clip-path="url(#87dbcef533)"><path fill="#ffbd59" d="M 44.378906 63.699219 C 46.160156 63.703125 47.921875 63.535156 49.671875 63.199219 C 51.417969 62.859375 53.117188 62.359375 54.769531 61.695312 C 56.421875 61.03125 57.996094 60.214844 59.492188 59.25 C 60.984375 58.28125 62.375 57.183594 63.65625 55.949219 C 62.859375 57.074219 61.996094 58.148438 61.066406 59.171875 C 60.140625 60.195312 59.15625 61.160156 58.113281 62.066406 C 57.070312 62.972656 55.976562 63.8125 54.835938 64.589844 C 53.691406 65.363281 52.507812 66.066406 51.28125 66.699219 C 50.054688 67.335938 48.792969 67.894531 47.5 68.375 C 46.207031 68.859375 44.886719 69.261719 43.546875 69.589844 C 42.203125 69.914062 40.847656 70.160156 39.476562 70.324219 C 38.105469 70.484375 36.726562 70.566406 35.347656 70.566406 C 16.175781 70.566406 0.636719 55.027344 0.636719 35.855469 C 0.636719 16.683594 16.175781 1.140625 35.347656 1.140625 C 36.726562 1.140625 38.105469 1.222656 39.476562 1.386719 C 40.847656 1.550781 42.203125 1.792969 43.546875 2.117188 C 44.886719 2.445312 46.207031 2.847656 47.5 3.332031 C 48.792969 3.816406 50.054688 4.375 51.28125 5.007812 C 52.507812 5.640625 53.691406 6.34375 54.835938 7.121094 C 55.980469 7.894531 57.070312 8.734375 58.113281 9.640625 C 59.15625 10.546875 60.140625 11.511719 61.066406 12.535156 C 61.996094 13.558594 62.859375 14.632812 63.65625 15.761719 C 62.375 14.527344 60.984375 13.425781 59.492188 12.457031 C 57.996094 11.492188 56.421875 10.675781 54.769531 10.011719 C 53.117188 9.347656 51.417969 8.847656 49.671875 8.511719 C 47.921875 8.171875 46.160156 8.003906 44.378906 8.007812 C 29 8.007812 16.535156 20.476562 16.535156 35.855469 C 16.535156 51.230469 29 63.699219 44.378906 63.699219 Z M 44.378906 63.699219 " fill-opacity="1" fill-rule="nonzero"/></g></g></g></g><g fill="#262a40" fill-opacity="1"><g transform="translate(12.162071, 45.033439)"><g><path d="M 6.484375 -0.046875 C 5.285156 -0.046875 4.195312 -0.320312 3.21875 -0.875 C 2.25 -1.4375 1.46875 -2.191406 0.875 -3.140625 C 0.289062 -4.085938 0 -5.132812 0 -6.28125 L 0 -22.078125 C 0 -23.253906 0.28125 -24.320312 0.84375 -25.28125 C 1.40625 -26.238281 2.164062 -27.007812 3.125 -27.59375 C 4.082031 -28.1875 5.160156 -28.484375 6.359375 -28.484375 L 12.515625 -28.484375 C 14.460938 -28.484375 16.28125 -28.113281 17.96875 -27.375 C 19.664062 -26.644531 21.15625 -25.625 22.4375 -24.3125 C 23.71875 -23.007812 24.71875 -21.5 25.4375 -19.78125 C 26.15625 -18.0625 26.515625 -16.226562 26.515625 -14.28125 C 26.515625 -12.300781 26.140625 -10.453125 25.390625 -8.734375 C 24.648438 -7.015625 23.625 -5.5 22.3125 -4.1875 C 21.007812 -2.882812 19.5 -1.867188 17.78125 -1.140625 C 16.0625 -0.410156 14.210938 -0.046875 12.234375 -0.046875 Z M 12.953125 -12.796875 C 13.410156 -12.796875 13.785156 -12.9375 14.078125 -13.21875 C 14.367188 -13.5 14.515625 -13.835938 14.515625 -14.234375 C 14.515625 -14.660156 14.367188 -15.023438 14.078125 -15.328125 C 13.785156 -15.640625 13.410156 -15.796875 12.953125 -15.796875 L 12.125 -15.796875 L 12.125 -12.796875 Z M 12.953125 -12.796875 "/></g></g></g><g fill="#454c75" fill-opacity="1"><g transform="translate(14.077148, 43.426498)"><g><path d="M 6.484375 -0.046875 C 5.285156 -0.046875 4.195312 -0.320312 3.21875 -0.875 C 2.25 -1.4375 1.46875 -2.191406 0.875 -3.140625 C 0.289062 -4.085938 0 -5.132812 0 -6.28125 L 0 -22.078125 C 0 -23.253906 0.28125 -24.320312 0.84375 -25.28125 C 1.40625 -26.238281 2.164062 -27.007812 3.125 -27.59375 C 4.082031 -28.1875 5.160156 -28.484375 6.359375 -28.484375 L 12.515625 -28.484375 C 14.460938 -28.484375 16.28125 -28.113281 17.96875 -27.375 C 19.664062 -26.644531 21.15625 -25.625 22.4375 -24.3125 C 23.71875 -23.007812 24.71875 -21.5 25.4375 -19.78125 C 26.15625 -18.0625 26.515625 -16.226562 26.515625 -14.28125 C 26.515625 -12.300781 26.140625 -10.453125 25.390625 -8.734375 C 24.648438 -7.015625 23.625 -5.5 22.3125 -4.1875 C 21.007812 -2.882812 19.5 -1.867188 17.78125 -1.140625 C 16.0625 -0.410156 14.210938 -0.046875 12.234375 -0.046875 Z M 12.953125 -12.796875 C 13.410156 -12.796875 13.785156 -12.9375 14.078125 -13.21875 C 14.367188 -13.5 14.515625 -13.835938 14.515625 -14.234375 C 14.515625 -14.660156 14.367188 -15.023438 14.078125 -15.328125 C 13.785156 -15.640625 13.410156 -15.796875 12.953125 -15.796875 L 12.125 -15.796875 L 12.125 -12.796875 Z M 12.953125 -12.796875 "/></g></g></g><g fill="#262a40" fill-opacity="1"><g transform="translate(23.769491, 56.083366)"><g><path d="M 20.953125 -8.515625 C 20.128906 -7.535156 19.238281 -6.671875 18.28125 -5.921875 C 17.320312 -5.171875 16.375 -4.8125 15.4375 -4.84375 C 14.53125 -4.84375 13.613281 -5.207031 12.6875 -5.9375 C 11.769531 -6.675781 10.890625 -7.535156 10.046875 -8.515625 L 8.796875 -10.046875 C 8.722656 -10.117188 8.640625 -10.132812 8.546875 -10.09375 C 8.453125 -10.0625 8.441406 -9.988281 8.515625 -9.875 L 12.40625 -4.5625 C 12.21875 -2.9375 11.535156 -1.726562 10.359375 -0.9375 C 9.179688 -0.15625 7.820312 0.234375 6.28125 0.234375 C 5.21875 0.234375 4.210938 -0.0507812 3.265625 -0.625 C 2.316406 -1.195312 1.539062 -1.953125 0.9375 -2.890625 C 0.34375 -3.835938 0.046875 -4.890625 0.046875 -6.046875 L 0.046875 -21.796875 C 0.046875 -22.972656 0.3125 -24.003906 0.84375 -24.890625 C 1.375 -25.785156 2.066406 -26.503906 2.921875 -27.046875 C 3.773438 -27.597656 4.707031 -27.929688 5.71875 -28.046875 C 6.726562 -28.171875 7.726562 -28.039062 8.71875 -27.65625 C 9.707031 -27.269531 10.570312 -26.597656 11.3125 -25.640625 L 15.484375 -20.28125 L 19.765625 -25.640625 C 20.535156 -26.597656 21.40625 -27.269531 22.375 -27.65625 C 23.351562 -28.039062 24.347656 -28.171875 25.359375 -28.046875 C 26.367188 -27.929688 27.300781 -27.597656 28.15625 -27.046875 C 29.007812 -26.503906 29.703125 -25.785156 30.234375 -24.890625 C 30.773438 -24.003906 31.046875 -22.972656 31.046875 -21.796875 L 31.046875 -6.046875 C 31.046875 -4.890625 30.742188 -3.835938 30.140625 -2.890625 C 29.535156 -1.953125 28.757812 -1.195312 27.8125 -0.625 C 26.875 -0.0507812 25.867188 0.234375 24.796875 0.234375 C 23.253906 0.234375 21.894531 -0.15625 20.71875 -0.9375 C 19.539062 -1.726562 18.863281 -2.9375 18.6875 -4.5625 L 22.5625 -9.875 C 22.613281 -9.957031 22.597656 -10.023438 22.515625 -10.078125 C 22.441406 -10.128906 22.363281 -10.117188 22.28125 -10.046875 Z M 20.953125 -8.515625 "/></g></g></g><g fill="#5271ff" fill-opacity="1"><g transform="translate(25.684569, 54.476425)"><g><path d="M 20.953125 -8.515625 C 20.128906 -7.535156 19.238281 -6.671875 18.28125 -5.921875 C 17.320312 -5.171875 16.375 -4.8125 15.4375 -4.84375 C 14.53125 -4.84375 13.613281 -5.207031 12.6875 -5.9375 C 11.769531 -6.675781 10.890625 -7.535156 10.046875 -8.515625 L 8.796875 -10.046875 C 8.722656 -10.117188 8.640625 -10.132812 8.546875 -10.09375 C 8.453125 -10.0625 8.441406 -9.988281 8.515625 -9.875 L 12.40625 -4.5625 C 12.21875 -2.9375 11.535156 -1.726562 10.359375 -0.9375 C 9.179688 -0.15625 7.820312 0.234375 6.28125 0.234375 C 5.21875 0.234375 4.210938 -0.0507812 3.265625 -0.625 C 2.316406 -1.195312 1.539062 -1.953125 0.9375 -2.890625 C 0.34375 -3.835938 0.046875 -4.890625 0.046875 -6.046875 L 0.046875 -21.796875 C 0.046875 -22.972656 0.3125 -24.003906 0.84375 -24.890625 C 1.375 -25.785156 2.066406 -26.503906 2.921875 -27.046875 C 3.773438 -27.597656 4.707031 -27.929688 5.71875 -28.046875 C 6.726562 -28.171875 7.726562 -28.039062 8.71875 -27.65625 C 9.707031 -27.269531 10.570312 -26.597656 11.3125 -25.640625 L 15.484375 -20.28125 L 19.765625 -25.640625 C 20.535156 -26.597656 21.40625 -27.269531 22.375 -27.65625 C 23.351562 -28.039062 24.347656 -28.171875 25.359375 -28.046875 C 26.367188 -27.929688 27.300781 -27.597656 28.15625 -27.046875 C 29.007812 -26.503906 29.703125 -25.785156 30.234375 -24.890625 C 30.773438 -24.003906 31.046875 -22.972656 31.046875 -21.796875 L 31.046875 -6.046875 C 31.046875 -4.890625 30.742188 -3.835938 30.140625 -2.890625 C 29.535156 -1.953125 28.757812 -1.195312 27.8125 -0.625 C 26.875 -0.0507812 25.867188 0.234375 24.796875 0.234375 C 23.253906 0.234375 21.894531 -0.15625 20.71875 -0.9375 C 19.539062 -1.726562 18.863281 -2.9375 18.6875 -4.5625 L 22.5625 -9.875 C 22.613281 -9.957031 22.597656 -10.023438 22.515625 -10.078125 C 22.441406 -10.128906 22.363281 -10.117188 22.28125 -10.046875 Z M 20.953125 -8.515625 "/></g></g></g></svg>