<svg xmlns="http://www.w3.org/2000/svg" xmlns:xlink="http://www.w3.org/1999/xlink" width="500" zoomAndPan="magnify" viewBox="0 0 375 374.999991" height="500" preserveAspectRatio="xMidYMid meet" version="1.0"><path fill="#f23f43" d="M 187.5 0 C 291.050781 0 375 83.949219 375 187.5 C 375 291.050781 291.050781 375 187.5 375 C 83.949219 375 0 291.050781 0 187.5 C 0 83.949219 83.949219 0 187.5 0 Z M 85.226562 204.546875 C 85.226562 213.964844 92.855469 221.589844 102.273438 221.589844 L 272.726562 221.589844 C 282.144531 221.589844 289.773438 213.964844 289.773438 204.546875 L 289.773438 170.453125 C 289.773438 161.035156 282.144531 153.410156 272.726562 153.410156 L 102.273438 153.410156 C 92.855469 153.410156 85.226562 161.035156 85.226562 170.453125 Z M 85.226562 204.546875 " fill-opacity="1" fill-rule="nonzero"/></svg>