<svg xmlns="http://www.w3.org/2000/svg" xmlns:xlink="http://www.w3.org/1999/xlink" width="500" zoomAndPan="magnify" viewBox="0 0 375 374.999991" height="500" preserveAspectRatio="xMidYMid meet" version="1.0"><defs><clipPath id="a580211321"><path d="M 0 0 L 373.5 0 L 373.5 375 L 0 375 Z M 0 0 " clip-rule="nonzero"/></clipPath></defs><g clip-path="url(#a580211321)"><path fill="#f0b232" d="M 251.058594 288.414062 C 174.359375 288.414062 110.359375 224.414062 110.359375 147.714844 C 110.359375 74.546875 168.632812 12.984375 240.589844 7.484375 C 223.878906 2.609375 206.226562 -0.0195312 187.949219 -0.0195312 C 84.371094 -0.0195312 0.410156 83.941406 0.410156 187.5 C 0.410156 291.058594 84.371094 375.019531 187.949219 375.019531 C 281.585938 375.019531 359.195312 306.371094 373.199219 216.664062 C 348.796875 259.210938 302.828125 288.414062 251.058594 288.414062 " fill-opacity="1" fill-rule="nonzero"/></g><path fill="#f0b232" d="M 49.0625 128.90625 C 49.0625 134.558594 44.46875 139.167969 38.800781 139.167969 C 33.128906 139.167969 28.535156 134.558594 28.535156 128.90625 C 28.535156 123.234375 33.128906 118.625 38.800781 118.625 C 44.46875 118.625 49.0625 123.234375 49.0625 128.90625 " fill-opacity="1" fill-rule="nonzero"/><path fill="#f0b232" d="M 67.566406 93.710938 C 67.566406 99.382812 62.953125 103.976562 57.285156 103.976562 C 51.613281 103.976562 47.019531 99.382812 47.019531 93.710938 C 47.019531 88.042969 51.613281 83.449219 57.285156 83.449219 C 62.953125 83.449219 67.566406 88.042969 67.566406 93.710938 " fill-opacity="1" fill-rule="nonzero"/><path fill="#f0b232" d="M 88.09375 150.378906 C 88.09375 156.066406 83.5 160.660156 77.832031 160.660156 C 72.160156 160.660156 67.566406 156.066406 67.566406 150.378906 C 67.566406 144.726562 72.160156 140.132812 77.832031 140.132812 C 83.5 140.132812 88.09375 144.726562 88.09375 150.378906 " fill-opacity="1" fill-rule="nonzero"/></svg>