<svg width="2077" height="1107" xmlns="http://www.w3.org/2000/svg" xmlns:xlink="http://www.w3.org/1999/xlink" xml:space="preserve" overflow="hidden"><defs><linearGradient x1="2201.5" y1="1791" x2="2201.5" y2="766.022" gradientUnits="userSpaceOnUse" spreadMethod="reflect" id="fill0"><stop offset="0" stop-color="#0D0D0D"/><stop offset="0.33" stop-color="#0D0D0D"/><stop offset="1" stop-color="#380000"/></linearGradient></defs><g transform="translate(-1162 -684)"><path d="M2702.18 1791 1700.82 1791C1667.23 1791 1640 1763.77 1640 1730.18L1640 766.022 2763 766.022 2763 1730.18C2763 1763.77 2735.77 1791 2702.18 1791Z" fill="url(#fill0)" fill-rule="evenodd"/><path d="M1667.57 684 2735.43 684C2750.66 684 2763 696.345 2763 711.573L2763 766 1640 766 1640 711.573C1640 696.345 1652.34 684 1667.57 684Z" fill="#FFFFFF" fill-rule="evenodd"/><path d="M1948.42 1173.39 2073.15 1054.04 2201.49 1188.15 2329.84 1054.04 2454.56 1173.39 2320.96 1313 2454.56 1452.61 2329.84 1571.96 2201.49 1437.85 2073.15 1571.96 1948.42 1452.61 2082.02 1313Z" stroke="#000000" stroke-width="6.875" stroke-miterlimit="8" fill="#FF0000" fill-rule="evenodd"/><path d="M2684 727C2684 716.507 2692.51 708 2703 708 2713.49 708 2722 716.507 2722 727 2722 737.493 2713.49 746 2703 746 2692.51 746 2684 737.493 2684 727Z" fill="#C00000" fill-rule="evenodd"/><path d="M2633 727C2633 716.507 2641.51 708 2652 708 2662.49 708 2671 716.507 2671 727 2671 737.493 2662.49 746 2652 746 2641.51 746 2633 737.493 2633 727Z" fill="#8ED973" fill-rule="evenodd"/><path d="M2582 727C2582 716.507 2590.51 708 2601 708 2611.49 708 2620 716.507 2620 727 2620 737.493 2611.49 746 2601 746 2590.51 746 2582 737.493 2582 727Z" fill="#FFC000" fill-rule="evenodd"/><path d="M3.00744e-06-3.4375 389.583-3.43716C391.482-3.43716 393.021-1.89814 393.021 0.00034385 393.021 1.89882 391.482 3.43784 389.583 3.43784L-3.00744e-06 3.4375C-1.89848 3.4375-3.4375 1.89848-3.4375-3.00744e-06-3.4375-1.89848-1.89848-3.4375 3.00744e-06-3.4375ZM385-22.9163 412.5 0.000360892 385 22.917Z" fill="#380000" transform="matrix(-1 0 0 1 1607 1229.5)"/><path d="M1607.5 1032.5 1607.5 1426.23" stroke="#380000" stroke-width="6.875" stroke-linecap="round" stroke-miterlimit="8" fill="none" fill-rule="evenodd"/><path d="M2793.5 1226.06 3183.08 1226.06C3184.98 1226.06 3186.52 1227.6 3186.52 1229.5 3186.52 1231.4 3184.98 1232.94 3183.08 1232.94L2793.5 1232.94C2791.6 1232.94 2790.06 1231.4 2790.06 1229.5 2790.06 1227.6 2791.6 1226.06 2793.5 1226.06ZM3178.5 1206.58 3206 1229.5 3178.5 1252.42Z" fill="#380000"/><path d="M2793.5 1032.5 2793.5 1426.23" stroke="#380000" stroke-width="6.875" stroke-linecap="round" stroke-miterlimit="8" fill="none" fill-rule="evenodd"/></g></svg>