<svg xmlns="http://www.w3.org/2000/svg" viewBox="0 0 50 50" width="250" height="250">
<linearGradient y1="10" x2="8" y2="40" gradientUnits="userSpaceOnUse" id="a" x1="37">
  <stop offset="0" stop-color="#8960FE"/>
  <stop offset="1" stop-color="#fff"/>
</linearGradient>
<path d="m23.5 13.5-4.887-4.073a4 4 0 0 0-2.561-.927H8.5a3 3 0 0 0-3 3v25a3 3 0 0 0 3 3h31a3 3 0 0 0 3-3v-20a3 3 0 0 0-3-3z" fill="url(#a)"/>
<path class="st31" d="M5.5 29.771V36.5a3 3 0 0 0 3 3h31a3 3 0 0 0 3-3v-20a3 3 0 0 0-3-3h-1.053M32.723 13.5H23.5l-4.887-4.073a4 4 0 0 0-2.561-.927H8.5a3 3 0 0 0-3 3v11.67"/>
<style>
  .st31 {
    fill: none;
    stroke: #8960fe;
    stroke-width: 1px;
    stroke-linecap: round;
    stroke-linejoin: round;
    stroke-miterlimit: 10;
  }
</style>
</svg>